<svg xmlns="http://www.w3.org/2000/svg" width="361" height="99" viewBox="0 0 361 99"><style type="text/css">.st0{fill:#066D50;}</style><path class="st0" d="M0 99.8l22.6-49.9v49.9zM22.6 99.8l22.6-49.9v49.9zM45.2 99.8l22.6-49.9v49.9zM67.8 99.8l22.6-49.9v49.9zM90.4 99.8l22.5-49.9v49.9zM112.9 99.8l22.6-49.9v49.9zM135.5 99.8l22.6-49.9v49.9zM158.1 99.8l22.6-49.9v49.9zM180.7 99.8l22.6-49.9v49.9zM203.3 99.8l22.6-49.9v49.9zM225.9 99.8l22.6-49.9v49.9zM248.5 99.8l22.6-49.9v49.9zM271.1 99.8l22.6-49.9v49.9zM293.7 99.8l22.6-49.9v49.9zM316.3 99.8l22.5-49.9v49.9zM338.8 99.8l22.6-49.9v49.9zM0 49.9l22.6-49.9v49.9zM22.6 49.9l22.6-49.9v49.9zM45.2 49.9l22.6-49.9v49.9zM67.8 49.9l22.6-49.9v49.9zM90.4 49.9l22.5-49.9v49.9zM112.9 49.9l22.6-49.9v49.9zM135.5 49.9l22.6-49.9v49.9zM158.1 49.9l22.6-49.9v49.9zM180.7 49.9l22.6-49.9v49.9zM203.3 49.9l22.6-49.9v49.9zM225.9 49.9l22.6-49.9v49.9zM248.5 49.9l22.6-49.9v49.9zM271.1 49.9l22.6-49.9v49.9zM293.7 49.9l22.6-49.9v49.9zM316.3 49.9l22.5-49.9v49.9zM338.8 49.9l22.6-49.9v49.9z"/></svg>
