<svg xmlns="http://www.w3.org/2000/svg" width="361" height="88" viewBox="0 0 361 88"><style type="text/css">.st0{fill:#EA7F13;}</style><path class="st0" d="M11.5 0h5.7v8.6h-5.7zM11.5 49.4h5.7v38.6h-5.7zM23.8 64.1h4.9v14.3h-4.9zM25.514 74.594l3.154 3.75-11.479 9.654-3.154-3.75zM4.892 78.32h-4.9v-14.3h4.9zM14.586 84.291l-3.154 3.75-11.479-9.654 3.154-3.75zM6.7 12.1h5.7v8.6h-5.7zM6.7 24.7h5.7v8.6h-5.7zM6.7 37.3h5.7v8.6h-5.7zM16.2 12.1h5.7v8.6h-5.7zM16.2 24.7h5.7v8.6h-5.7zM16.2 37.3h5.7v8.6h-5.7zM35.2 0h5.7v8.6h-5.7zM35.2 49.4h5.7v38.6h-5.7zM47.5 64.1h4.9v14.3h-4.9zM49.302 74.617l3.154 3.75-11.479 9.654-3.154-3.75zM28.631 78.32h-4.9v-14.3h4.9zM38.401 84.237l-3.154 3.75-11.479-9.654 3.154-3.75zM30.4 12.1h5.7v8.6h-5.7zM30.4 24.7h5.7v8.6h-5.7zM30.4 37.3h5.7v8.6h-5.7zM40 12.1h5.7v8.6h-5.7zM40 24.7h5.7v8.6h-5.7zM40 37.3h5.7v8.6h-5.7zM59 0h5.7v8.6h-5.7zM59 49.4h5.7v38.6h-5.7zM71.3 64.1h4.9v14.3h-4.9zM73.026 74.563l3.154 3.75-11.479 9.654-3.154-3.75zM52.47 78.32h-4.9v-14.3h4.9zM62.152 84.26l-3.154 3.75-11.479-9.654 3.154-3.75zM54.2 12.1h5.7v8.6h-5.7zM54.2 24.7h5.7v8.6h-5.7zM54.2 37.3h5.7v8.6h-5.7zM63.8 12.1h5.7v8.6h-5.7zM63.8 24.7h5.7v8.6h-5.7zM63.8 37.3h5.7v8.6h-5.7zM82.8 0h5.7v8.6h-5.7zM82.8 49.4h5.7v38.6h-5.7zM95.1 64.1h4.9v14.3h-4.9zM96.814 74.585l3.154 3.75-11.479 9.654-3.154-3.75zM76.21 78.32h-4.9v-14.3h4.9zM85.903 84.282l-3.154 3.75-11.479-9.654 3.154-3.75zM78 12.1h5.7v8.6h-5.7zM78 24.7h5.7v8.6h-5.7zM78 37.3h5.7v8.6h-5.7zM87.6 12.1h5.7v8.6h-5.7zM87.6 24.7h5.7v8.6h-5.7zM87.6 37.3h5.7v8.6h-5.7zM106.5 0h5.7v8.6h-5.7zM106.5 49.4h5.7v38.6h-5.7zM118.8 64.1h4.9v14.3h-4.9zM120.603 74.607l3.154 3.75-11.479 9.654-3.154-3.75zM99.949 78.32h-4.9v-14.3h4.9zM109.719 84.228l-3.154 3.75-11.479-9.654 3.154-3.75zM101.7 12.1h5.7v8.6h-5.7zM101.7 24.7h5.7v8.6h-5.7zM101.7 37.3h5.7v8.6h-5.7zM111.3 12.1h5.7v8.6h-5.7zM111.3 24.7h5.7v8.6h-5.7zM111.3 37.3h5.7v8.6h-5.7zM130.3 0h5.7v8.6h-5.7zM130.3 49.4h5.7v38.6h-5.7zM142.6 64.1h4.9v14.3h-4.9zM144.391 74.63l3.154 3.75-11.479 9.654-3.154-3.75zM123.788 78.32h-4.9v-14.3h4.9zM133.47 84.251l-3.154 3.75-11.479-9.654 3.154-3.75zM125.5 12.1h5.7v8.6h-5.7zM125.5 24.7h5.7v8.6h-5.7zM125.5 37.3h5.7v8.6h-5.7zM135.1 12.1h5.7v8.6h-5.7zM135.1 24.7h5.7v8.6h-5.7zM135.1 37.3h5.7v8.6h-5.7zM154.1 0h5.7v8.6h-5.7zM154.1 49.4h5.7v38.6h-5.7zM166.4 64.1h4.9v14.3h-4.9zM168.115 74.576l3.154 3.75-11.479 9.654-3.154-3.75zM147.528 78.32h-4.9v-14.3h4.9zM157.221 84.273l-3.154 3.75-11.479-9.654 3.154-3.75zM149.3 12.1h5.7v8.6h-5.7zM149.3 24.7h5.7v8.6h-5.7zM149.3 37.3h5.7v8.6h-5.7zM158.9 12.1h5.7v8.6h-5.7zM158.9 24.7h5.7v8.6h-5.7zM158.9 37.3h5.7v8.6h-5.7zM177.8 0h5.7v8.6h-5.7zM177.8 49.4h5.7v38.6h-5.7zM190.1 64.1h4.9v14.3h-4.9zM191.903 74.598l3.154 3.75-11.479 9.654-3.154-3.75zM171.267 78.32h-4.9v-14.3h4.9zM181.036 84.219l-3.154 3.75-11.479-9.654 3.154-3.75zM173 12.1h5.7v8.6h-5.7zM173 24.7h5.7v8.6h-5.7zM173 37.3h5.7v8.6h-5.7zM182.6 12.1h5.7v8.6h-5.7zM182.6 24.7h5.7v8.6h-5.7zM182.6 37.3h5.7v8.6h-5.7zM201.6 0h5.7v8.6h-5.7zM201.6 49.4h5.7v38.6h-5.7zM213.9 64.1h4.9v14.3h-4.9zM215.692 74.621l3.154 3.75-11.479 9.654-3.154-3.75zM195.006 78.32h-4.9v-14.3h4.9zM204.787 84.241l-3.154 3.75-11.479-9.654 3.154-3.75zM196.8 12.1h5.7v8.6h-5.7zM196.8 24.7h5.7v8.6h-5.7zM196.8 37.3h5.7v8.6h-5.7zM206.4 12.1h5.7v8.6h-5.7zM206.4 24.7h5.7v8.6h-5.7zM206.4 37.3h5.7v8.6h-5.7zM225.4 0h5.7v8.6h-5.7zM225.4 49.4h5.7v38.6h-5.7zM237.7 64.1h4.9v14.3h-4.9zM239.416 74.567l3.154 3.75-11.479 9.654-3.154-3.75zM218.846 78.32h-4.9v-14.3h4.9zM228.538 84.264l-3.154 3.75-11.479-9.654 3.154-3.75zM220.6 12.1h5.7v8.6h-5.7zM220.6 24.7h5.7v8.6h-5.7zM220.6 37.3h5.7v8.6h-5.7zM230.2 12.1h5.7v8.6h-5.7zM230.2 24.7h5.7v8.6h-5.7zM230.2 37.3h5.7v8.6h-5.7zM249.1 0h5.7v8.6h-5.7zM249.1 49.4h5.7v38.6h-5.7zM261.5 64.1h4.9v14.3h-4.9zM263.204 74.589l3.154 3.75-11.479 9.654-3.154-3.75zM242.585 78.32h-4.9v-14.3h4.9zM252.289 84.286l-3.154 3.75-11.479-9.654 3.154-3.75zM244.4 12.1h5.7v8.6h-5.7zM244.4 24.7h5.7v8.6h-5.7zM244.4 37.3h5.7v8.6h-5.7zM253.9 12.1h5.7v8.6h-5.7zM253.9 24.7h5.7v8.6h-5.7zM253.9 37.3h5.7v8.6h-5.7zM272.9 0h5.7v8.6h-5.7zM272.9 49.4h5.7v38.6h-5.7zM285.2 64.1h4.9v14.3h-4.9zM286.992 74.611l3.154 3.75-11.479 9.654-3.154-3.75zM266.324 78.32h-4.9v-14.3h4.9zM276.104 84.232l-3.154 3.75-11.479-9.654 3.154-3.75zM268.1 12.1h5.7v8.6h-5.7zM268.1 24.7h5.7v8.6h-5.7zM268.1 37.3h5.7v8.6h-5.7zM277.7 12.1h5.7v8.6h-5.7zM277.7 24.7h5.7v8.6h-5.7zM277.7 37.3h5.7v8.6h-5.7zM296.7 0h5.7v8.6h-5.7zM296.7 49.4h5.7v38.6h-5.7zM309 64.1h4.9v14.3h-4.9zM310.716 74.558l3.154 3.75-11.479 9.654-3.154-3.75zM290.164 78.32h-4.9v-14.3h4.9zM299.855 84.255l-3.154 3.75-11.479-9.654 3.154-3.75zM291.9 12.1h5.7v8.6h-5.7zM291.9 24.7h5.7v8.6h-5.7zM291.9 37.3h5.7v8.6h-5.7zM301.5 12.1h5.7v8.6h-5.7zM301.5 24.7h5.7v8.6h-5.7zM301.5 37.3h5.7v8.6h-5.7zM320.5 0h5.7v8.6h-5.7zM320.5 49.4h5.7v38.6h-5.7zM332.8 64.1h4.9v14.3h-4.9zM334.505 74.58l3.154 3.75-11.479 9.654-3.154-3.75zM313.903 78.32h-4.9v-14.3h4.9zM323.606 84.277l-3.154 3.75-11.479-9.654 3.154-3.75zM315.7 12.1h5.7v8.6h-5.7zM315.7 24.7h5.7v8.6h-5.7zM315.7 37.3h5.7v8.6h-5.7zM325.2 12.1h5.7v8.6h-5.7zM325.2 24.7h5.7v8.6h-5.7zM325.2 37.3h5.7v8.6h-5.7zM344.2 0h5.7v8.6h-5.7zM344.2 49.4h5.7v38.6h-5.7zM356.5 64.1h4.9v14.3h-4.9zM358.293 74.602l3.154 3.75-11.479 9.654-3.154-3.75zM337.642 78.32h-4.9v-14.3h4.9zM347.421 84.223l-3.154 3.75-11.479-9.654 3.154-3.75zM339.4 12.1h5.7v8.6h-5.7zM339.4 24.7h5.7v8.6h-5.7zM339.4 37.3h5.7v8.6h-5.7zM349 12.1h5.7v8.6h-5.7zM349 24.7h5.7v8.6h-5.7zM349 37.3h5.7v8.6h-5.7z"/></svg>
