<svg xmlns="http://www.w3.org/2000/svg" width="361" height="81" viewBox="0 0 361 81"><style type="text/css">.st0{fill:#A4DB3A;}</style><path class="st0" d="M0 0h9.1v35.3h-9.1zM18.5 0h9.1v35.3h-9.1zM0 46.1h9.1v35.3h-9.1zM18.5 46.1h9.1v35.3h-9.1zM47.7 0h9.1v35.3h-9.1zM66.2 0h9.1v35.3h-9.1zM47.7 46.1h9.1v35.3h-9.1zM66.2 46.1h9.1v35.3h-9.1zM95.4 0h9.1v35.3h-9.1zM113.9 0h9.1v35.3h-9.1zM95.4 46.1h9.1v35.3h-9.1zM113.9 46.1h9.1v35.3h-9.1zM143.1 0h9.1v35.3h-9.1zM161.6 0h9.1v35.3h-9.1zM143.1 46.1h9.1v35.3h-9.1zM161.6 46.1h9.1v35.3h-9.1zM190.8 0h9.1v35.3h-9.1zM209.3 0h9.1v35.3h-9.1zM190.8 46.1h9.1v35.3h-9.1zM209.3 46.1h9.1v35.3h-9.1zM238.5 0h9.1v35.3h-9.1zM257 0h9.1v35.3h-9.1zM238.5 46.1h9.1v35.3h-9.1zM257 46.1h9.1v35.3h-9.1zM286.2 0h9.1v35.3h-9.1zM304.7 0h9.1v35.3h-9.1zM286.2 46.1h9.1v35.3h-9.1zM304.7 46.1h9.1v35.3h-9.1zM333.9 0h9.1v35.3h-9.1zM352.4 0h9.1v35.3h-9.1zM333.9 46.1h9.1v35.3h-9.1zM352.4 46.1h9.1v35.3h-9.1z"/></svg>
