<svg xmlns="http://www.w3.org/2000/svg" width="361" height="73" viewBox="0 0 361.5 73.2"><style type="text/css">.st0{fill:#009DE2;}</style><path class="st0" d="M361.5 15.6l-20.3-15.6-16.1 12.3-16-12.3-16.1 12.3-16-12.3-16 12.3-16.1-12.3-16 12.3-16.1-12.3-16 12.3-16.1-12.3-16 12.3-16-12.3h-.1l-16 12.3-16-12.3-16.1 12.3-16-12.3-16.1 12.3-16-12.3-16.1 12.3-16-12.3-20.3 15.6 4.3 5.6 15.5-11.9.5-.4 16 12.3 16.1-12.3 16 12.3 16.1-12.3 16 12.3 16.1-12.3 16 12.3 16.1-12.3 16 12.3 16-12.3 16.1 12.3 16-12.3 16.1 12.3 16-12.3 16.1 12.3 16-12.3 16 12.3 16.1-12.3 16 12.3 16.1-12.3 16 12.3zM361.5 41.6l-20.3-15.6-16.1 12.3-16-12.3-16.1 12.3-16-12.3-16 12.3-16.1-12.3-16 12.3-16.1-12.3-16 12.3-16.1-12.3-16 12.3-16-12.3h-.1l-16 12.3-16-12.3-16.1 12.3-16-12.3-16.1 12.3-16-12.3-16.1 12.3-16-12.3-20.3 15.6 4.3 5.6 15.5-11.9.5-.4 16 12.3 16.1-12.3 16 12.3 16.1-12.3 16 12.3 16.1-12.3 16 12.3 16.1-12.3 16 12.3 16-12.3 16.1 12.3 16-12.3 16.1 12.3 16-12.3 16.1 12.3 16-12.3 16 12.3 16.1-12.3 16 12.3 16.1-12.3 16 12.3zM361.5 67.6l-20.3-15.6-16.1 12.3-16-12.3-16.1 12.3-16-12.3-16 12.3-16.1-12.3-16 12.3-16.1-12.3-16 12.3-16.1-12.3-16 12.3-16-12.3h-.1l-16 12.3-16-12.3-16.1 12.3-16-12.3-16.1 12.3-16-12.3-16.1 12.3-16-12.3-20.3 15.6 4.3 5.6 15.5-11.9.5-.4 16 12.3 16.1-12.3 16 12.3 16.1-12.3 16 12.3 16.1-12.3 16 12.3 16.1-12.3 16 12.3 16-12.3 16.1 12.3 16-12.3 16.1 12.3 16-12.3 16.1 12.3 16-12.3 16 12.3 16.1-12.3 16 12.3 16.1-12.3 16 12.3z"/></svg>
