<svg xmlns="http://www.w3.org/2000/svg" width="210" height="298" viewBox="0 0 210 298"><style type="text/css">.st0{fill:#0c0f16;}</style><path class="st0" d="M19.9 231.6h23v66.4h-23zm42.5 0h23v66.4h-23zm104.8 0h23v66.4h-23zm-42.5 0h23v66.4h-23zm-9.9-78.8h23v66.4h-23zm-42.5 0h23v66.4h-23zm19.7-152.8h26.2v35.2h-26.2zm16.8 85.2v.1h-7.5v-.1l-8.1.1h-66l31.3 53.7 19.9-11.5-11.9-20.6 20.3.1v.1l18.3-.1 18.2.1v-.1l20.3-.1-11.9 20.6 19.9 11.5 31.3-53.7h-66zm81-71.6l-17.1 32.3-67.6.2-67.7-.2-17.1-32.3-20.3 10.8 22.9 43.3h164.3l22.9-43.3z"/></svg>
